{"title":"Captain America: The Winter.Soldier.2014.1080p.BluRay.5.1.x264 .","uid":10749053,"size":3145407163,"categoryP":"video","categoryS":"hd___movies","magnet":"?xt=urn:btih:31c80fcc6a5860463c18754baffa782774d0a7b7&amp;dn=Captain+America%3A+The+Winter.Soldier.2014.1080p.BluRay.5.1.x264+.&amp;tr=udp%3A%2F%2Ftracker.openbittorrent.com%3A80&amp;tr=udp%3A%2F%2Fopen.demonii.com%3A1337&amp;tr=udp%3A%2F%2Ftracker.coppersurfer.tk%3A6969&amp;tr=udp%3A%2F%2Fexodus.desync.com%3A6969","seeders":1,"leechers":1,"uploader":".NVEE","files":-1,"time":1407856101,"description":"Quick note :\nPlease seed to a Share Ratio of at least 1.1\nIf you require a torrent release I have posted in the past, not seeding,...\nPlease do not hesitate to inform me in any means you find fit to do so.\nTorrent requests also &quot;Always Welcome.&quot;\n\n\nFULL_INFOs\n\n99.99% --- SYNCED GUARANTEED \n\n&quot;Totally scrutinized / analyzed to be a verified torrent.&quot;\n___________________________________________\n\nSource : Blu-ray ~ 1080p\n\n\n\nSpoken Language : English\n\nAudio : 6 ~ Channels Only\n\n\nSubs Info :\n\nEnglish foreign parts only ~ Embedded\n\nText\nID : 3\nFormat : Timed Text\nCodec ID : tx3g\nDuration : 1h 19mn\nBit rate mode : Variable\nBit rate : 1 bps\nStream size : 797 Bytes (0%)\nTitle : English-Forced\nLanguage : English\nEncoded date : UTC 2014-08-10 21:21:38\nTagged date : UTC 2014-08-10 21:21:38\n\nx3 ~ English .srt \n\nAll .srt UTF-8 .idx &amp; .ass subs can be turned On/Off\n_____________________________________\n---------------------------------------------------------------------------------\n\nGeneral Metadata\n\nComplete name : Captain America: The Winter.Soldier.2014.800p.BluRay.5.1.x264 . NVEE.mp4\nFormat : MPEG-4\nFormat profile : Base Media\nCodec ID : isom\nFile size : 2.93 GiB\nDuration : 2h 15mn\nOverall bit rate mode : Variable\nOverall bit rate : 3 086 Kbps\nEncoded date : UTC 2014-08-10 21:08:33\nTagged date : UTC 2014-08-10 21:08:33\n\n\nVideo\n\nID : 1\nFormat : AVC\nFormat/Info : Advanced Video Codec\nFormat profile : &lt;a class=&quot;__cf_email__&quot; href=&quot;/cdn-cgi/l/email-protection&quot; data-cfemail=&quot;bef6d7d9d6fef28a908f&quot;&gt;[email&amp;#160;protected]&lt;/a&gt;&lt;script cf-hash='f9e31' type=&quot;text/javascript&quot;&gt;\n/* &lt;![CDATA[ */!function(){try{var t=&quot;currentScript&quot;in document?document.currentScript:function(){for(var t=document.getElementsByTagName(&quot;script&quot;),e=t.length;e--;)if(t[e].getAttribute(&quot;cf-hash&quot;))return t[e]}();if(t&amp;&amp;t.previousSibling){var e,r,n,i,c=t.previousSibling,a=c.getAttribute(&quot;data-cfemail&quot;);if(a){for(e=&quot;&quot;,r=parseInt(a.substr(0,2),16),n=2;a.length-n;n+=2)i=parseInt(a.substr(n,2),16)^r,e+=String.fromCharCode(i);e=document.createTextNode(e),c.parentNode.replaceChild(e,c)}}}catch(u){}}();/* ]]&gt; */&lt;/script&gt;\nFormat settings, CABAC : Yes\nFormat settings, ReFrames : 3 frames\nCodec ID : avc1\nCodec ID/Info : Advanced Video Coding\nDuration : 2h 15mn\nBit rate : 2 455 Kbps\nMaximum bit rate : 33.9 Mbps\nWidth : 1 920 pixels\nHeight : 800 pixels\nDisplay aspect ratio : 2.40:1\nFrame rate mode : Constant\nFrame rate : 23.976 fps\nColor space : YUV\nChroma subsampling : 4:2:0\nBit depth : 8 bits\nScan type : Progressive\nBits/(Pixel*Frame) : 0.067\nStream size : 2.32 GiB (79%)\nWriting library : x264 core 142 r2453 ea0ca51\nEncoded from Physical Blu-ray / Region B\n\n\nAudio\n\nID : 2\nFormat : AC-3\nFormat/Info : Audio Coding 3\nMode extension : CM (complete main)\nFormat settings, Endianness : Big\nCodec ID : ac-3\nDuration : 2h 15mn\nBit rate mode : Constant\nBit rate : 640 Kbps\nChannel(s) : 6 channels\nChannel positions : Front: L C R, Side: L R, LFE\nSampling rate : 48.0 KHz\nBit depth : 16 bits\nCompression mode : Lossy\nStream size : 622 MiB (21%)\nLanguage : English\nEncoded date : UTC 2014-08-10 21:20:16\nTagged date : UTC 2014-08-10 21:21:38\nEncoded from Physical Blu-ray 6 Channel audio &quot;Always&quot;.\n\n\nEnj0y !","torrent":{"xt":"urn:btih:31c80fcc6a5860463c18754baffa782774d0a7b7","amp;dn":"Captain+America%3A+The+Winter.Soldier.2014.1080p.BluRay.5.1.x264+.","amp;tr":["udp%3A%2F%2Ftracker.openbittorrent.com%3A80","udp%3A%2F%2Fopen.demonii.com%3A1337","udp%3A%2F%2Ftracker.coppersurfer.tk%3A6969","udp%3A%2F%2Fexodus.desync.com%3A6969"],"infoHash":"31c80fcc6a5860463c18754baffa782774d0a7b7","infoHashBuffer":{"type":"Buffer","data":[49,200,15,204,106,88,96,70,60,24,117,75,175,250,120,39,116,208,167,183]},"announce":[],"urlList":[]}}